%TF.GenerationSoftware,KiCad,Pcbnew,9.0.2*%
%TF.CreationDate,2025-05-28T17:01:59+05:30*%
%TF.ProjectId,linus_ide_toolbar,6c696e75-735f-4696-9465-5f746f6f6c62,rev?*%
%TF.SameCoordinates,Original*%
%TF.FileFunction,Soldermask,Top*%
%TF.FilePolarity,Negative*%
%FSLAX46Y46*%
G04 Gerber Fmt 4.6, Leading zero omitted, Abs format (unit mm)*
G04 Created by KiCad (PCBNEW 9.0.2) date 2025-05-28 17:01:59*
%MOMM*%
%LPD*%
G01*
G04 APERTURE LIST*
%ADD10R,1.700000X1.700000*%
%ADD11O,1.700000X1.700000*%
%ADD12C,1.700000*%
%ADD13C,4.000000*%
%ADD14C,2.200000*%
%ADD15R,2.000000X2.000000*%
%ADD16C,2.000000*%
%ADD17R,3.200000X2.000000*%
%ADD18R,1.600000X0.850000*%
%ADD19C,1.524000*%
G04 APERTURE END LIST*
D10*
%TO.C,J1*%
X109615000Y-87305000D03*
D11*
X109615000Y-89845000D03*
X109615000Y-92385000D03*
X109615000Y-94925000D03*
%TD*%
D12*
%TO.C,Stop1*%
X96380000Y-108580000D03*
D13*
X101460000Y-108580000D03*
D12*
X106540000Y-108580000D03*
D14*
X104000000Y-103500000D03*
X97650000Y-106040000D03*
%TD*%
D12*
%TO.C,key1*%
X77380000Y-108580000D03*
D13*
X82460000Y-108580000D03*
D12*
X87540000Y-108580000D03*
D14*
X85000000Y-103500000D03*
X78650000Y-106040000D03*
%TD*%
D12*
%TO.C,key5*%
X153380000Y-108580000D03*
D13*
X158460000Y-108580000D03*
D12*
X163540000Y-108580000D03*
D14*
X161000000Y-103500000D03*
X154650000Y-106040000D03*
%TD*%
D12*
%TO.C,Continue1*%
X115380000Y-108580000D03*
D13*
X120460000Y-108580000D03*
D12*
X125540000Y-108580000D03*
D14*
X123000000Y-103500000D03*
X116650000Y-106040000D03*
%TD*%
D15*
%TO.C,SW1*%
X123500000Y-86500000D03*
D16*
X123500000Y-91500000D03*
X123500000Y-89000000D03*
D17*
X131000000Y-83400000D03*
X131000000Y-94600000D03*
D16*
X138000000Y-91500000D03*
X138000000Y-86500000D03*
%TD*%
D18*
%TO.C,D2*%
X138500000Y-117000000D03*
X138500000Y-118750000D03*
X142000000Y-118750000D03*
X142000000Y-117000000D03*
%TD*%
%TO.C,D1*%
X100500000Y-117000000D03*
X100500000Y-118750000D03*
X104000000Y-118750000D03*
X104000000Y-117000000D03*
%TD*%
D12*
%TO.C,key4*%
X134380000Y-108580000D03*
D13*
X139460000Y-108580000D03*
D12*
X144540000Y-108580000D03*
D14*
X142000000Y-103500000D03*
X135650000Y-106040000D03*
%TD*%
D19*
%TO.C,U1*%
X149380000Y-83380000D03*
X151920000Y-83380000D03*
X154460000Y-83380000D03*
X157000000Y-83380000D03*
X159540000Y-83380000D03*
X162080000Y-83380000D03*
X164620000Y-83380000D03*
X164620000Y-98620000D03*
X162080000Y-98620000D03*
X159540000Y-98620000D03*
X157000000Y-98620000D03*
X154460000Y-98620000D03*
X151920000Y-98620000D03*
X149380000Y-98620000D03*
%TD*%
M02*
