%TF.GenerationSoftware,KiCad,Pcbnew,9.0.2*%
%TF.CreationDate,2025-05-28T17:01:59+05:30*%
%TF.ProjectId,linus_ide_toolbar,6c696e75-735f-4696-9465-5f746f6f6c62,rev?*%
%TF.SameCoordinates,Original*%
%TF.FileFunction,Legend,Bot*%
%TF.FilePolarity,Positive*%
%FSLAX46Y46*%
G04 Gerber Fmt 4.6, Leading zero omitted, Abs format (unit mm)*
G04 Created by KiCad (PCBNEW 9.0.2) date 2025-05-28 17:01:59*
%MOMM*%
%LPD*%
G01*
G04 APERTURE LIST*
%ADD10C,0.100000*%
%ADD11C,0.150000*%
%ADD12C,0.101600*%
%ADD13C,0.127000*%
%ADD14C,0.504000*%
G04 APERTURE END LIST*
D10*
X108500000Y-111000000D02*
X108500000Y-112000000D01*
D11*
X155869819Y-87241541D02*
X156869819Y-87908207D01*
X155869819Y-87908207D02*
X156869819Y-87241541D01*
X156869819Y-88289160D02*
X155869819Y-88289160D01*
X156584104Y-88717731D02*
X156584104Y-89193921D01*
X156869819Y-88622493D02*
X155869819Y-88955826D01*
X155869819Y-88955826D02*
X156869819Y-89289159D01*
X155869819Y-89812969D02*
X155869819Y-90003445D01*
X155869819Y-90003445D02*
X155917438Y-90098683D01*
X155917438Y-90098683D02*
X156012676Y-90193921D01*
X156012676Y-90193921D02*
X156203152Y-90241540D01*
X156203152Y-90241540D02*
X156536485Y-90241540D01*
X156536485Y-90241540D02*
X156726961Y-90193921D01*
X156726961Y-90193921D02*
X156822200Y-90098683D01*
X156822200Y-90098683D02*
X156869819Y-90003445D01*
X156869819Y-90003445D02*
X156869819Y-89812969D01*
X156869819Y-89812969D02*
X156822200Y-89717731D01*
X156822200Y-89717731D02*
X156726961Y-89622493D01*
X156726961Y-89622493D02*
X156536485Y-89574874D01*
X156536485Y-89574874D02*
X156203152Y-89574874D01*
X156203152Y-89574874D02*
X156012676Y-89622493D01*
X156012676Y-89622493D02*
X155917438Y-89717731D01*
X155917438Y-89717731D02*
X155869819Y-89812969D01*
X156869819Y-91432017D02*
X155869819Y-91432017D01*
X156346009Y-91432017D02*
X156346009Y-92003445D01*
X156869819Y-92003445D02*
X155869819Y-92003445D01*
X156346009Y-92479636D02*
X156346009Y-92812969D01*
X156869819Y-92955826D02*
X156869819Y-92479636D01*
X156869819Y-92479636D02*
X155869819Y-92479636D01*
X155869819Y-92479636D02*
X155869819Y-92955826D01*
X156869819Y-93955826D02*
X156393628Y-93622493D01*
X156869819Y-93384398D02*
X155869819Y-93384398D01*
X155869819Y-93384398D02*
X155869819Y-93765350D01*
X155869819Y-93765350D02*
X155917438Y-93860588D01*
X155917438Y-93860588D02*
X155965057Y-93908207D01*
X155965057Y-93908207D02*
X156060295Y-93955826D01*
X156060295Y-93955826D02*
X156203152Y-93955826D01*
X156203152Y-93955826D02*
X156298390Y-93908207D01*
X156298390Y-93908207D02*
X156346009Y-93860588D01*
X156346009Y-93860588D02*
X156393628Y-93765350D01*
X156393628Y-93765350D02*
X156393628Y-93384398D01*
X156346009Y-94384398D02*
X156346009Y-94717731D01*
X156869819Y-94860588D02*
X156869819Y-94384398D01*
X156869819Y-94384398D02*
X155869819Y-94384398D01*
X155869819Y-94384398D02*
X155869819Y-94860588D01*
D12*
X144564811Y-81890476D02*
X145212430Y-81890476D01*
X145212430Y-81890476D02*
X145288620Y-81928571D01*
X145288620Y-81928571D02*
X145326716Y-81966666D01*
X145326716Y-81966666D02*
X145364811Y-82042857D01*
X145364811Y-82042857D02*
X145364811Y-82195238D01*
X145364811Y-82195238D02*
X145326716Y-82271428D01*
X145326716Y-82271428D02*
X145288620Y-82309523D01*
X145288620Y-82309523D02*
X145212430Y-82347619D01*
X145212430Y-82347619D02*
X144564811Y-82347619D01*
X145364811Y-83147618D02*
X145364811Y-82690475D01*
X145364811Y-82919047D02*
X144564811Y-82919047D01*
X144564811Y-82919047D02*
X144679096Y-82842856D01*
X144679096Y-82842856D02*
X144755287Y-82766666D01*
X144755287Y-82766666D02*
X144793382Y-82690475D01*
D13*
%TO.C,U1*%
X145049000Y-95004000D02*
X145049000Y-87008728D01*
X145548728Y-86508728D02*
X146459000Y-86505000D01*
D10*
X146459000Y-84015000D02*
X146459000Y-97985000D01*
D13*
X146459000Y-84015000D02*
X146459000Y-97985000D01*
X146459000Y-95504000D02*
X145549000Y-95504000D01*
X148364000Y-82110000D02*
X165509000Y-82110000D01*
X148364000Y-99890000D02*
X165509000Y-99890000D01*
X167414000Y-97985000D02*
X167414000Y-84015000D01*
X145049000Y-87008728D02*
G75*
G02*
X145548728Y-86508727I500019J-18D01*
G01*
X145549000Y-95504000D02*
G75*
G02*
X145049000Y-95004000I0J500000D01*
G01*
X146459000Y-84015000D02*
G75*
G02*
X148364000Y-82110000I1905001J-1D01*
G01*
X148364000Y-99890000D02*
G75*
G02*
X146459000Y-97985000I0J1905000D01*
G01*
X165509000Y-82110000D02*
G75*
G02*
X167414000Y-84015000I-1J-1905001D01*
G01*
X167414000Y-97985000D02*
G75*
G02*
X165509000Y-99890000I-1905000J0D01*
G01*
D14*
X146952000Y-82050000D02*
G75*
G02*
X146448000Y-82050000I-252000J0D01*
G01*
X146448000Y-82050000D02*
G75*
G02*
X146952000Y-82050000I252000J0D01*
G01*
X147832000Y-83193000D02*
G75*
G02*
X147328000Y-83193000I-252000J0D01*
G01*
X147328000Y-83193000D02*
G75*
G02*
X147832000Y-83193000I252000J0D01*
G01*
%TD*%
M02*
