%TF.GenerationSoftware,KiCad,Pcbnew,9.0.2*%
%TF.CreationDate,2025-05-28T17:01:59+05:30*%
%TF.ProjectId,linus_ide_toolbar,6c696e75-735f-4696-9465-5f746f6f6c62,rev?*%
%TF.SameCoordinates,Original*%
%TF.FileFunction,Copper,L2,Bot*%
%TF.FilePolarity,Positive*%
%FSLAX46Y46*%
G04 Gerber Fmt 4.6, Leading zero omitted, Abs format (unit mm)*
G04 Created by KiCad (PCBNEW 9.0.2) date 2025-05-28 17:01:59*
%MOMM*%
%LPD*%
G01*
G04 APERTURE LIST*
G04 Aperture macros list*
%AMRoundRect*
0 Rectangle with rounded corners*
0 $1 Rounding radius*
0 $2 $3 $4 $5 $6 $7 $8 $9 X,Y pos of 4 corners*
0 Add a 4 corners polygon primitive as box body*
4,1,4,$2,$3,$4,$5,$6,$7,$8,$9,$2,$3,0*
0 Add four circle primitives for the rounded corners*
1,1,$1+$1,$2,$3*
1,1,$1+$1,$4,$5*
1,1,$1+$1,$6,$7*
1,1,$1+$1,$8,$9*
0 Add four rect primitives between the rounded corners*
20,1,$1+$1,$2,$3,$4,$5,0*
20,1,$1+$1,$4,$5,$6,$7,0*
20,1,$1+$1,$6,$7,$8,$9,0*
20,1,$1+$1,$8,$9,$2,$3,0*%
G04 Aperture macros list end*
%TA.AperFunction,ComponentPad*%
%ADD10R,1.700000X1.700000*%
%TD*%
%TA.AperFunction,ComponentPad*%
%ADD11O,1.700000X1.700000*%
%TD*%
%TA.AperFunction,ComponentPad*%
%ADD12C,2.200000*%
%TD*%
%TA.AperFunction,ComponentPad*%
%ADD13R,2.000000X2.000000*%
%TD*%
%TA.AperFunction,ComponentPad*%
%ADD14C,2.000000*%
%TD*%
%TA.AperFunction,ComponentPad*%
%ADD15R,3.200000X2.000000*%
%TD*%
%TA.AperFunction,SMDPad,CuDef*%
%ADD16RoundRect,0.152400X0.609600X-1.063600X0.609600X1.063600X-0.609600X1.063600X-0.609600X-1.063600X0*%
%TD*%
%TA.AperFunction,ComponentPad*%
%ADD17C,1.524000*%
%TD*%
%TA.AperFunction,SMDPad,CuDef*%
%ADD18RoundRect,0.152400X-0.609600X1.063600X-0.609600X-1.063600X0.609600X-1.063600X0.609600X1.063600X0*%
%TD*%
%TA.AperFunction,ViaPad*%
%ADD19C,0.600000*%
%TD*%
%TA.AperFunction,Conductor*%
%ADD20C,0.200000*%
%TD*%
G04 APERTURE END LIST*
D10*
%TO.P,J1,1,Pin_1*%
%TO.N,GND*%
X109615000Y-87305000D03*
D11*
%TO.P,J1,2,Pin_2*%
%TO.N,+5V*%
X109615000Y-89845000D03*
%TO.P,J1,3,Pin_3*%
%TO.N,Net-(J1-Pin_3)*%
X109615000Y-92385000D03*
%TO.P,J1,4,Pin_4*%
%TO.N,Net-(J1-Pin_4)*%
X109615000Y-94925000D03*
%TD*%
D12*
%TO.P,Stop1,1,1*%
%TO.N,GND*%
X104000000Y-103500000D03*
%TO.P,Stop1,2,2*%
%TO.N,Net-(U1-GPIO2{slash}SCK)*%
X97650000Y-106040000D03*
%TD*%
%TO.P,key1,1,1*%
%TO.N,GND*%
X85000000Y-103500000D03*
%TO.P,key1,2,2*%
%TO.N,Net-(U1-GPIO1{slash}RX)*%
X78650000Y-106040000D03*
%TD*%
%TO.P,key5,1,1*%
%TO.N,GND*%
X161000000Y-103500000D03*
%TO.P,key5,2,2*%
%TO.N,Net-(U1-GPIO0{slash}TX)*%
X154650000Y-106040000D03*
%TD*%
%TO.P,Continue1,1,1*%
%TO.N,GND*%
X123000000Y-103500000D03*
%TO.P,Continue1,2,2*%
%TO.N,Net-(U1-GPIO4{slash}MISO)*%
X116650000Y-106040000D03*
%TD*%
D13*
%TO.P,SW1,A,A*%
%TO.N,Net-(U1-GPIO26{slash}ADC0{slash}A0)*%
X123500000Y-86500000D03*
D14*
%TO.P,SW1,B,B*%
%TO.N,Net-(U1-GPIO27{slash}ADC1{slash}A1)*%
X123500000Y-91500000D03*
%TO.P,SW1,C,C*%
%TO.N,Net-(SW1-PadC)*%
X123500000Y-89000000D03*
D15*
%TO.P,SW1,MP*%
%TO.N,N/C*%
X131000000Y-83400000D03*
X131000000Y-94600000D03*
D14*
%TO.P,SW1,S1,S1*%
%TO.N,Net-(U1-GPIO28{slash}ADC2{slash}A2)*%
X138000000Y-91500000D03*
%TO.P,SW1,S2,S2*%
%TO.N,Net-(SW1-PadC)*%
X138000000Y-86500000D03*
%TD*%
D12*
%TO.P,key4,1,1*%
%TO.N,GND*%
X142000000Y-103500000D03*
%TO.P,key4,2,2*%
%TO.N,Net-(U1-GPIO3{slash}MOSI)*%
X135650000Y-106040000D03*
%TD*%
D16*
%TO.P,U1,1,GPIO26/ADC0/A0*%
%TO.N,Net-(U1-GPIO26{slash}ADC0{slash}A0)*%
X149380000Y-82545000D03*
D17*
X149380000Y-83380000D03*
D16*
%TO.P,U1,2,GPIO27/ADC1/A1*%
%TO.N,Net-(U1-GPIO27{slash}ADC1{slash}A1)*%
X151920000Y-82545000D03*
D17*
X151920000Y-83380000D03*
D16*
%TO.P,U1,3,GPIO28/ADC2/A2*%
%TO.N,Net-(U1-GPIO28{slash}ADC2{slash}A2)*%
X154460000Y-82545000D03*
D17*
X154460000Y-83380000D03*
D16*
%TO.P,U1,4,GPIO29/ADC3/A3*%
%TO.N,Net-(D2-DIN)*%
X157000000Y-82545000D03*
D17*
X157000000Y-83380000D03*
D16*
%TO.P,U1,5,GPIO6/SDA*%
%TO.N,Net-(J1-Pin_4)*%
X159540000Y-82545000D03*
D17*
X159540000Y-83380000D03*
D16*
%TO.P,U1,6,GPIO7/SCL*%
%TO.N,Net-(J1-Pin_3)*%
X162080000Y-82545000D03*
D17*
X162080000Y-83380000D03*
D16*
%TO.P,U1,7,GPIO0/TX*%
%TO.N,Net-(U1-GPIO0{slash}TX)*%
X164620000Y-82545000D03*
D17*
X164620000Y-83380000D03*
%TO.P,U1,8,GPIO1/RX*%
%TO.N,Net-(U1-GPIO1{slash}RX)*%
X164620000Y-98620000D03*
D18*
X164620000Y-99455000D03*
D17*
%TO.P,U1,9,GPIO2/SCK*%
%TO.N,Net-(U1-GPIO2{slash}SCK)*%
X162080000Y-98620000D03*
D18*
X162080000Y-99455000D03*
D17*
%TO.P,U1,10,GPIO4/MISO*%
%TO.N,Net-(U1-GPIO4{slash}MISO)*%
X159540000Y-98620000D03*
D18*
X159540000Y-99455000D03*
D17*
%TO.P,U1,11,GPIO3/MOSI*%
%TO.N,Net-(U1-GPIO3{slash}MOSI)*%
X157000000Y-98620000D03*
D18*
X157000000Y-99455000D03*
D17*
%TO.P,U1,12,3V3*%
%TO.N,unconnected-(U1-3V3-Pad12)*%
X154460000Y-98620000D03*
D18*
X154460000Y-99455000D03*
D17*
%TO.P,U1,13,GND*%
%TO.N,GND*%
X151920000Y-98620000D03*
D18*
X151920000Y-99455000D03*
D17*
%TO.P,U1,14,VBUS*%
%TO.N,+5V*%
X149380000Y-98620000D03*
D18*
X149380000Y-99455000D03*
%TD*%
D19*
%TO.N,GND*%
X92000000Y-118000000D03*
X140000000Y-117000000D03*
%TO.N,Net-(U1-GPIO2{slash}SCK)*%
X162000000Y-95000000D03*
%TO.N,Net-(U1-GPIO4{slash}MISO)*%
X159560417Y-95023856D03*
%TO.N,Net-(U1-GPIO1{slash}RX)*%
X164649656Y-94992209D03*
%TO.N,Net-(J1-Pin_4)*%
X159000000Y-88000000D03*
%TO.N,Net-(U1-GPIO0{slash}TX)*%
X166000000Y-99000000D03*
%TD*%
D20*
%TO.N,GND*%
X92000000Y-103500000D02*
X92000000Y-118000000D01*
X130000000Y-103500000D02*
X142000000Y-103500000D01*
X142000000Y-103500000D02*
X152000000Y-103500000D01*
X92000000Y-103500000D02*
X104000000Y-103500000D01*
X140000000Y-117000000D02*
X139000000Y-116000000D01*
X130000000Y-116000000D02*
X130000000Y-103500000D01*
X123000000Y-103500000D02*
X130000000Y-103500000D01*
X109615000Y-87305000D02*
X112000000Y-89690000D01*
X112000000Y-89690000D02*
X112000000Y-103500000D01*
X151920000Y-98620000D02*
X151920000Y-103420000D01*
X112000000Y-103500000D02*
X123000000Y-103500000D01*
X151920000Y-103420000D02*
X152000000Y-103500000D01*
X104000000Y-103500000D02*
X112000000Y-103500000D01*
X139000000Y-116000000D02*
X130000000Y-116000000D01*
X152000000Y-103500000D02*
X161000000Y-103500000D01*
X85000000Y-103500000D02*
X92000000Y-103500000D01*
%TO.N,Net-(U1-GPIO2{slash}SCK)*%
X97650000Y-106040000D02*
X104960000Y-106040000D01*
X162000000Y-96000000D02*
X162000000Y-95000000D01*
X169000000Y-112847786D02*
X169000000Y-97434315D01*
X105000000Y-115000000D02*
X109000000Y-119000000D01*
X104960000Y-106040000D02*
X105000000Y-106000000D01*
X167565685Y-96000000D02*
X162000000Y-96000000D01*
X105000000Y-106000000D02*
X105000000Y-115000000D01*
X168000000Y-119000000D02*
X169000000Y-118000000D01*
X169000000Y-97434315D02*
X167565685Y-96000000D01*
X109000000Y-119000000D02*
X168000000Y-119000000D01*
X169000000Y-118000000D02*
X169000000Y-112847786D01*
%TO.N,Net-(U1-GPIO4{slash}MISO)*%
X159560417Y-96992577D02*
X159560417Y-95023856D01*
X168000000Y-98000000D02*
X167000000Y-97000000D01*
X167000000Y-118000000D02*
X168000000Y-117000000D01*
X160000000Y-97000000D02*
X159552994Y-97000000D01*
X124000000Y-106000000D02*
X124000000Y-115000000D01*
X159552994Y-97000000D02*
X159560417Y-96992577D01*
X123960000Y-106040000D02*
X124000000Y-106000000D01*
X168000000Y-117000000D02*
X168000000Y-98000000D01*
X167000000Y-97000000D02*
X160000000Y-97000000D01*
X116650000Y-106040000D02*
X123960000Y-106040000D01*
X127000000Y-118000000D02*
X167000000Y-118000000D01*
X124000000Y-115000000D02*
X127000000Y-118000000D01*
%TO.N,Net-(U1-GPIO3{slash}MOSI)*%
X167000000Y-98000000D02*
X166558000Y-97558000D01*
X158062000Y-97558000D02*
X157000000Y-98620000D01*
X145000000Y-117000000D02*
X166000000Y-117000000D01*
X166558000Y-97558000D02*
X158062000Y-97558000D01*
X137245634Y-106000000D02*
X143000000Y-106000000D01*
X137205634Y-106040000D02*
X137245634Y-106000000D01*
X135650000Y-106040000D02*
X137205634Y-106040000D01*
X167000000Y-116000000D02*
X167000000Y-98000000D01*
X143000000Y-106000000D02*
X143000000Y-115000000D01*
X166000000Y-117000000D02*
X167000000Y-116000000D01*
X157000000Y-99697630D02*
X157000000Y-98620000D01*
X143000000Y-115000000D02*
X145000000Y-117000000D01*
%TO.N,Net-(U1-GPIO1{slash}RX)*%
X164657447Y-95000000D02*
X164649656Y-94992209D01*
X168000000Y-95000000D02*
X165000000Y-95000000D01*
X170000000Y-97000000D02*
X168000000Y-95000000D01*
X78650000Y-106040000D02*
X85960000Y-106040000D01*
X91000000Y-120000000D02*
X169000000Y-120000000D01*
X169000000Y-120000000D02*
X170000000Y-119000000D01*
X91000000Y-120000000D02*
X86000000Y-115000000D01*
X85960000Y-106040000D02*
X86000000Y-106000000D01*
X170000000Y-115000000D02*
X170000000Y-97000000D01*
X165000000Y-95000000D02*
X164657447Y-95000000D01*
X170000000Y-119000000D02*
X170000000Y-115000000D01*
X86000000Y-106000000D02*
X86000000Y-115000000D01*
%TO.N,Net-(J1-Pin_4)*%
X159000000Y-88000000D02*
X159540000Y-87460000D01*
X159540000Y-87460000D02*
X159540000Y-83380000D01*
%TO.N,Net-(U1-GPIO0{slash}TX)*%
X162000000Y-106000000D02*
X162000000Y-115000000D01*
X161960000Y-106040000D02*
X162000000Y-106000000D01*
X154650000Y-106040000D02*
X161960000Y-106040000D01*
X163000000Y-116000000D02*
X165000000Y-116000000D01*
X166000000Y-115000000D02*
X166000000Y-99000000D01*
X165000000Y-116000000D02*
X166000000Y-115000000D01*
X162000000Y-115000000D02*
X163000000Y-116000000D01*
%TD*%
M02*
