M48
; DRILL file {KiCad 9.0.2} date 2025-05-28T17:02:05+0530
; FORMAT={-:-/ absolute / metric / decimal}
; #@! TF.CreationDate,2025-05-28T17:02:05+05:30
; #@! TF.GenerationSoftware,Kicad,Pcbnew,9.0.2
; #@! TF.FileFunction,Plated,1,2,PTH
FMAT,2
METRIC
; #@! TA.AperFunction,Plated,PTH,ViaDrill
T1C0.300
; #@! TA.AperFunction,Plated,PTH,ComponentDrill
T2C0.889
; #@! TA.AperFunction,Plated,PTH,ComponentDrill
T3C1.000
; #@! TA.AperFunction,Plated,PTH,ComponentDrill
T4C1.500
%
G90
G05
T1
X92.0Y-118.0
X140.0Y-117.0
X159.0Y-88.0
X159.56Y-95.024
X162.0Y-95.0
X164.65Y-94.992
X166.0Y-99.0
T2
X149.38Y-83.38
X149.38Y-98.62
X151.92Y-83.38
X151.92Y-98.62
X154.46Y-83.38
X154.46Y-98.62
X157.0Y-83.38
X157.0Y-98.62
X159.54Y-83.38
X159.54Y-98.62
X162.08Y-83.38
X162.08Y-98.62
X164.62Y-83.38
X164.62Y-98.62
T3
X109.615Y-87.305
X109.615Y-89.845
X109.615Y-92.385
X109.615Y-94.925
X123.5Y-86.5
X123.5Y-89.0
X123.5Y-91.5
X138.0Y-86.5
X138.0Y-91.5
T4
X78.65Y-106.04
X85.0Y-103.5
X97.65Y-106.04
X104.0Y-103.5
X116.65Y-106.04
X123.0Y-103.5
X135.65Y-106.04
X142.0Y-103.5
X154.65Y-106.04
X161.0Y-103.5
T4
G00X130.35Y-83.4
M15
G01X131.65Y-83.4
M16
G05
G00X130.35Y-94.6
M15
G01X131.65Y-94.6
M16
G05
M30
